# This file uses centimeters as units for non-parametric coordinates.

mtllib GR_PC.mtl
g default
v 44.747070 0.882576 -232.217560
v 64.814957 0.882576 -232.217560
v 64.814957 24.382576 -232.217560
v 44.747070 24.382576 -232.217560
v 54.781010 0.882576 -232.217560
v 66.443161 24.382576 -213.563446
v 66.443161 0.882576 -213.563446
v 43.118862 0.882576 -213.563446
v 43.118862 24.382576 -213.563446
v 46.753654 24.382578 -194.909317
v 54.781010 0.882576 -196.908310
v 63.658947 49.107204 -215.503021
v 62.419453 47.832386 -231.586578
v 45.903076 49.107204 -215.503021
v 47.142570 47.832386 -231.586578
v 54.781010 49.196301 -230.910858
v 61.003178 50.471119 -216.950043
v 60.134480 49.196301 -230.910858
v 48.558853 50.471119 -216.950043
v 49.427551 49.196301 -230.910858
v 64.834045 47.600208 -213.790375
v 63.343159 48.896412 -215.348022
v 44.727982 47.600208 -213.790375
v 46.218864 48.896412 -215.348022
v 60.859852 50.135799 -216.666687
v 54.781010 50.135799 -216.666687
v 48.702179 50.135799 -216.666687
v 44.727982 47.237560 -213.571381
v 64.834045 47.237560 -213.571381
v 63.533321 46.257282 -232.137329
v 62.189548 47.656788 -231.655487
v 46.028702 46.257282 -232.137329
v 47.372475 47.656788 -231.655487
v 54.781010 48.911350 -231.052032
v 60.031307 48.911350 -231.052032
v 49.530716 48.911350 -231.052032
v 62.808361 24.382576 -194.909317
v 54.781010 0.000000 -231.689362
v 64.273514 0.000000 -231.689362
v 45.288509 0.000000 -231.689362
v 54.781010 0.000000 -196.153625
v 45.123444 0.000000 -196.153625
v 64.438583 0.000000 -196.153625
v 44.747070 45.868176 -232.217560
v 44.810581 45.999493 -232.200836
v 43.118862 47.127583 -213.563446
v 43.214493 47.237549 -213.571381
v 64.751434 45.999493 -232.200836
v 64.814957 45.868176 -232.217560
v 66.442871 47.127411 -213.566711
v 66.347595 47.237560 -213.571381
v 44.668327 0.698540 -196.970093
v 46.753654 2.314453 -194.909317
v 64.908432 0.726866 -196.960587
v 62.800304 2.295156 -194.936264
v 44.631493 44.800743 -196.854324
v 46.753654 43.668648 -194.909317
v 64.931046 44.801159 -196.854492
v 62.808361 43.668648 -194.909317
v 44.630119 24.382578 -196.855606
v 64.931900 24.382578 -196.855606
v 54.786045 2.304794 -194.922806
v 54.781010 46.257282 -232.137329
v 54.786053 24.382576 -194.909317
v 54.783657 43.668648 -194.909317
v 54.781269 44.800743 -196.854324
v 54.781269 47.127460 -213.565765
v 64.834045 47.127430 -213.566345
v 54.781269 47.237560 -213.571381
v 44.727982 47.127491 -213.565201
v 62.808277 44.801071 -196.854462
v 46.753654 44.800747 -196.854324
v 54.781017 50.471119 -216.950043
v 54.781010 24.382582 -232.217560
v 54.781010 0.882576 -213.563446
v 54.781010 45.868179 -232.217560
v 54.781010 46.000072 -232.204376
vt 0.820557 0.571556
vt 0.656205 0.561893
vt 0.664218 0.355072
vt 0.830268 0.364871
vt 0.811060 0.760725
vt 0.646392 0.762152
vt 0.510326 0.553036
vt 0.512182 0.341996
vt 0.826567 0.355310
vt 0.810904 0.762011
vt 0.646448 0.763430
vt 0.502947 0.733848
vt 0.487297 0.361008
vt 0.485180 0.552583
vt 0.505752 0.333499
vt 0.664803 0.791395
vt 0.806555 0.788487
vt 0.480654 0.718756
vt 0.009468 0.566994
vt 0.002019 0.360194
vt 0.168154 0.352168
vt 0.173926 0.559142
vt 0.005826 0.350673
vt 0.319797 0.551595
vt 0.320333 0.340010
vt 0.016825 0.756329
vt 0.181491 0.759705
vt 0.325271 0.733362
vt 0.326943 0.331810
vt 0.345000 0.359945
vt 0.344917 0.551361
vt 0.016966 0.757617
vt 0.181392 0.760982
vt 0.347670 0.718765
vt 0.162709 0.788727
vt 0.021003 0.784144
vt 0.655505 0.232504
vt 0.652329 0.230556
vt 0.665510 0.068883
vt 0.636144 0.215466
vt 0.648164 0.071762
vt 0.832344 0.230952
vt 0.819469 0.067532
vt 0.835485 0.228948
vt 0.851402 0.213577
vt 0.836863 0.070106
vt 0.025534 0.808187
vt 0.148102 0.813821
vt 0.682588 0.871153
vt 0.805963 0.859486
vt 0.151904 0.815006
vt 0.678716 0.871285
vt 0.679114 0.816661
vt 0.801740 0.812474
vt 0.165326 0.791201
vt 0.675299 0.817801
vt 0.180388 0.774918
vt 0.662157 0.793838
vt 0.184041 0.774203
vt 0.647288 0.777378
vt 0.643643 0.776620
vt 0.521452 0.179408
vt 0.418129 0.178059
vt 0.419977 0.018336
vt 0.503686 0.019317
vt 0.416419 0.330409
vt 0.314805 0.177071
vt 0.336269 0.017391
vt 0.420082 0.009279
vt 0.508564 0.010316
vt 0.331601 0.008280
vt 0.560344 0.192912
vt 0.874136 0.198961
vt 0.859311 0.072634
vt 0.904792 0.064632
vt 0.625764 0.074683
vt 0.613157 0.201251
vt 0.344364 0.736396
vt 0.323478 0.883774
vt 0.309319 0.883154
vt 0.413687 0.886854
vt 0.414216 0.738752
vt 0.414338 0.719357
vt 0.483872 0.736765
vt 0.503873 0.884347
vt 0.518033 0.883836
vt 0.743922 0.231728
vt 0.742490 0.068208
vt 0.910804 0.566821
vt 0.910441 0.773519
vt 0.822186 0.773363
vt 0.822549 0.566665
vt 0.998695 0.773673
vt 0.999059 0.566975
vt 0.910110 0.962503
vt 0.821855 0.962340
vt 0.998366 0.962647
vt 0.910108 0.963669
vt 0.822412 0.963505
vt 0.997806 0.963811
vt 0.833122 0.965860
vt 0.910104 0.966007
vt 0.987087 0.966128
vt 0.844910 0.978902
vt 0.842882 0.980556
vt 0.977275 0.980791
vt 0.975254 0.979129
vt 0.863876 0.991170
vt 0.862965 0.993966
vt 0.957146 0.994130
vt 0.956244 0.991331
vt 0.910055 0.994026
vt 0.910060 0.991229
vt 0.414957 0.551462
vt 0.416202 0.360975
vt 0.416327 0.340056
vt 0.517225 0.884837
vt 0.503891 0.885318
vt 0.413684 0.887825
vt 0.323452 0.884744
vt 0.310122 0.884161
vt 0.143988 0.868268
vt 0.020759 0.855146
vt 0.147858 0.868445
vt 0.926795 0.189697
vt 0.580149 0.067481
vn 0.996212 0.000000 -0.086953
vn 0.999992 0.000007 -0.003907
vn 0.996212 0.000000 -0.086953
vn 0.999997 -0.000638 -0.002429
vn -0.996212 0.000000 -0.086953
vn -0.996212 0.000000 -0.086954
vn -0.999992 0.000007 -0.003909
vn -0.999997 -0.000810 -0.002097
vn 0.000000 0.000000 -1.000000
vn 0.000000 0.000000 -1.000000
vn -0.000001 0.000000 -1.000000
vn -0.000003 0.000000 -1.000000
vn 0.000000 0.995857 -0.090935
vn 0.000000 0.995857 -0.090936
vn 0.000000 0.995857 -0.090936
vn 0.000000 0.995857 -0.090935
vn 0.000000 -1.000000 -0.000077
vn 0.000000 -1.000000 -0.000045
vn 0.000000 -0.998817 0.048634
vn 0.000000 -0.998817 0.048634
vn 0.583152 0.805457 -0.105698
vn 0.555999 0.823981 -0.109181
vn 0.498601 0.860223 -0.106838
vn 0.485408 0.867415 -0.109411
vn -0.583158 0.805453 -0.105696
vn -0.498600 0.860223 -0.106838
vn -0.555998 0.823981 -0.109181
vn -0.485408 0.867415 -0.109412
vn -0.023520 0.651109 0.758620
vn -0.023469 0.651019 0.758699
vn -0.050172 0.705779 0.706653
vn -0.093265 0.676717 0.730312
vn 0.023519 0.651108 0.758621
vn 0.023468 0.651019 0.758699
vn 0.000000 0.645441 0.763810
vn 0.000000 0.645441 0.763810
vn 0.050168 0.705773 0.706660
vn 0.093259 0.676710 0.730319
vn -0.010495 0.380703 -0.924638
vn -0.000805 0.367746 -0.929926
vn 0.008716 0.278021 -0.960536
vn 0.004990 0.187568 -0.982239
vn 0.000000 0.443933 -0.896060
vn 0.000431 0.443166 -0.896440
vn 0.000000 0.443933 -0.896060
vn 0.000000 0.443931 -0.896061
vn 0.002009 0.443358 -0.896342
vn 0.001104 0.442282 -0.896875
vn 0.008309 0.374645 -0.927131
vn -0.003015 0.367109 -0.930173
vn 0.000000 -0.996397 0.084811
vn 0.000000 -0.996397 0.084811
vn 0.000000 -0.996397 0.084811
vn 0.000000 -0.996397 0.084811
vn 0.000000 -0.996397 0.084812
vn 0.000000 -0.996397 0.084811
vn 0.000000 -0.996397 0.084811
vn 0.000000 -0.996397 0.084811
vn -0.486471 -0.867910 0.100388
vn -0.485942 -0.868195 0.100482
vn -0.479788 -0.871486 0.101572
vn -0.478511 -0.872161 0.101797
vn 0.486469 -0.867911 0.100388
vn 0.479789 -0.871485 0.101572
vn 0.485941 -0.868196 0.100482
vn 0.478513 -0.872160 0.101797
vn 0.710929 -0.695924 0.101341
vn 0.700620 -0.706054 0.103050
vn 0.710419 -0.696432 0.101426
vn 0.699474 -0.707162 0.103237
vn -0.710928 -0.695925 0.101341
vn -0.710418 -0.696433 0.101426
vn -0.700619 -0.706055 0.103050
vn -0.699474 -0.707163 0.103237
vn -0.996869 0.040880 0.067683
vn -0.996869 0.040880 0.067683
vn -0.996869 0.040880 0.067683
vn 0.996870 0.040863 0.067682
vn 0.996870 0.040863 0.067682
vn 0.996870 0.040863 0.067682
vn 0.000000 -0.513532 -0.858070
vn 0.000000 -0.513532 -0.858070
vn 0.000000 -0.513532 -0.858070
vn 0.000000 -0.513532 -0.858070
vn 0.830224 -0.552699 -0.072465
vn 0.830224 -0.552699 -0.072465
vn 0.830224 -0.552699 -0.072465
vn 0.000000 -0.513532 -0.858070
vn 0.000000 -0.513532 -0.858070
vn 0.000000 -0.513532 -0.858070
vn 0.000000 -0.513532 -0.858070
vn -0.830228 -0.552694 -0.072466
vn -0.830228 -0.552694 -0.072466
vn -0.830228 -0.552694 -0.072466
vn -0.889571 0.443940 -0.107615
vn -0.754849 0.646998 -0.107683
vn -0.621829 0.775543 -0.108909
vn -0.627440 0.771549 -0.105031
vn 0.889545 0.443990 -0.107621
vn 0.621823 0.775548 -0.108910
vn 0.754954 0.646878 -0.107673
vn 0.627307 0.771657 -0.105029
vn 0.999985 0.000012 -0.005418
vn 0.996212 0.000000 -0.086953
vn -0.996212 0.000000 -0.086954
vn -0.999986 0.000000 -0.005398
vn 0.000000 -0.812958 0.582322
vn 0.009597 -0.794281 0.607475
vn 0.000241 -0.808327 0.588734
vn 0.010688 -0.792102 0.610296
vn -0.675670 0.000000 0.737205
vn -0.675671 -0.000001 0.737204
vn -0.675670 -0.000000 0.737205
vn -0.675671 -0.000001 0.737204
vn 0.995897 -0.000276 0.090494
vn 0.995933 0.000029 0.090093
vn 0.995454 -0.025463 0.091779
vn -0.995879 -0.000403 0.090687
vn -0.995374 -0.025378 0.092665
vn -0.995930 0.000023 0.090131
vn 0.082865 0.755216 0.650218
vn 0.000000 0.516929 0.856028
vn 0.087959 0.757645 0.646712
vn -0.087970 0.757645 0.646711
vn -0.082876 0.755217 0.650215
vn -0.000024 0.516937 0.856023
vn 0.675614 -0.000012 0.737256
vn 0.675618 -0.000011 0.737252
vn 0.675661 -0.000001 0.737212
vn 0.675667 0.000000 0.737207
vn -0.873845 -0.480184 0.076273
vn 0.014831 0.738627 0.673951
vn -0.000089 0.657063 0.753836
vn 0.013927 0.733508 0.679538
vn 0.000000 0.649893 0.760026
vn 0.873851 -0.480174 0.076273
vn 0.000000 0.000000 1.000000
vn 0.000200 -0.000254 1.000000
vn 0.000000 0.000000 1.000000
vn 0.000001 -0.000326 1.000000
vn 0.001675 0.000000 0.999999
vn 0.001304 -0.000611 0.999999
vn -0.701100 -0.004578 0.713048
vn -0.699658 -0.004314 0.714465
vn -0.678017 -0.000416 0.735046
vn -0.675673 0.000000 0.737202
vn 0.691116 -0.003893 0.722733
vn 0.677072 -0.001393 0.735916
vn 0.690226 -0.003733 0.723584
vn 0.675668 -0.001146 0.737205
vn -0.008157 -0.796932 0.604014
vn -0.009093 -0.795051 0.606475
vn -0.016648 0.748772 0.662619
vn -0.017743 0.754822 0.655689
vn 0.000000 -0.998817 0.048634
vn 0.000000 -1.000000 -0.000077
vn 0.000003 0.000000 -1.000000
vn 0.000001 0.000000 -1.000000
vn 0.000000 0.252244 -0.967664
vn 0.000000 0.197377 -0.980328
vn -0.008716 0.278023 -0.960535
vn -0.004991 0.187566 -0.982239
vn 0.000198 -0.000398 1.000000
vn 0.001677 -0.001221 0.999998
vn 0.000000 0.000000 1.000000
vn 0.000003 0.990446 0.137902
vn 0.000039 0.990446 0.137904
vn 0.000008 0.990445 0.137906
vn 0.000205 0.990445 0.137906
vn 0.000222 0.042547 0.999094
vn 0.000216 0.042641 0.999090
vn 0.000052 0.045654 0.998957
vn 0.000050 0.045706 0.998955
vn -0.000013 0.864260 0.503046
vn -0.000011 0.864256 0.503053
vn -0.000011 0.864219 0.503115
vn -0.000004 0.864213 0.503126
vn -0.000001 0.864262 0.503043
vn 0.000000 0.864261 0.503044
vn 0.000000 0.864261 0.503044
vn -0.000019 0.990446 0.137899
vn -0.000023 0.990448 0.137886
vn 0.000004 0.990447 0.137892
vn 0.000015 0.990450 0.137875
vn 0.000028 0.050916 0.998703
vn 0.000027 0.050953 0.998701
vn 0.000000 0.056023 0.998430
vn 0.000000 0.056059 0.998428
vn 0.000000 0.056054 0.998428
vn 0.001062 0.070575 0.997506
vn 0.000054 0.056789 0.998386
vn 0.001095 0.071023 0.997474
vn -0.000038 0.864212 0.503128
vn -0.000036 0.990451 0.137869
vn 0.000044 0.990451 0.137869
vn 0.000000 0.995857 -0.090935
vn 0.000000 0.995857 -0.090936
vn 0.000000 0.998609 -0.052726
vn 0.000000 0.998609 -0.052726
vn 0.000000 0.998609 -0.052726
vn 0.000000 0.998609 -0.052726
vn 0.000000 0.998609 -0.052727
vn 0.000000 0.998609 -0.052726
vn 0.000000 -0.998718 -0.050629
vn 0.000000 -0.998718 -0.050629
vn 0.000000 -0.998718 -0.050629
vn 0.000000 0.000607 -1.000000
vn -0.000000 0.000554 -1.000000
vn 0.000000 0.000554 -1.000000
s 1
g GR_PC_1 New_Assets
usemtl M_GR_PC
f 3/1/1 6/2/2 2/4/3
f 2/4/3 6/2/2 7/3/4
s 2
f 4/19/5 1/20/6 9/22/7
f 9/22/7 1/20/6 8/21/8
s 3
f 5/89/9 74/90/10 2/92/11
f 2/92/11 74/90/10 3/91/12
s 4
f 19/48/13 73/122/14 20/47/15
f 20/47/15 73/122/14 16/123/16
s 5
f 7/62/17 75/63/18 39/65/19
f 39/65/19 75/63/18 38/64/20
s 6
f 12/16/21 13/17/22 17/53/23
f 17/53/23 13/17/22 18/54/24
s 7
f 14/35/25 19/48/26 15/36/27
f 15/36/27 19/48/26 20/47/28
s 8
f 17/53/29 25/56/30 12/16/31
f 12/16/31 25/56/30 22/58/32
f 19/48/33 27/51/34 73/122/35
f 73/122/35 27/51/34 26/124/36
f 19/48/33 14/35/37 27/51/34
f 27/51/34 14/35/37 24/55/38
s 3
f 31/104/39 13/105/40 30/101/41
f 30/101/41 13/105/40 48/99/42
f 34/113/43 36/111/44 16/112/45
f 16/112/45 36/111/44 20/110/46
f 35/108/47 18/109/48 31/104/39
f 31/104/39 18/109/48 13/105/40
f 33/107/49 15/106/50 36/111/44
f 36/111/44 15/106/50 20/110/46
s 14
f 27/73/51 36/74/52 26/125/53
f 26/125/53 36/74/52 34/75/54
s 15
f 25/77/55 26/72/56 35/76/57
f 35/76/57 26/72/56 34/126/58
s 16
f 22/40/59 25/77/60 31/41/61
f 31/41/61 25/77/60 35/76/62
s 17
f 24/45/63 33/46/64 27/73/65
f 27/73/65 33/46/64 36/74/66
s 18
f 23/44/67 32/43/68 24/45/69
f 24/45/69 32/43/68 33/46/70
s 19
f 21/38/71 22/40/72 30/39/73
f 30/39/73 22/40/72 31/41/74
s off
f 29/37/75 21/38/76 30/39/77
f 28/42/78 32/43/79 23/44/80
s 20
f 2/70/81 39/65/82 5/69/83
f 5/69/83 39/65/82 38/64/84
s off
f 2/4/85 7/3/86 39/9/87
s 21
f 1/71/88 5/69/89 40/68/90
f 40/68/90 5/69/89 38/64/91
s off
f 8/21/92 1/20/93 40/23/94
s 7
f 44/26/95 46/27/96 45/32/97
f 45/32/97 46/27/96 47/33/98
s 6
f 49/5/99 48/10/100 50/6/101
f 50/6/101 48/10/100 51/11/102
s 1
f 50/6/103 6/2/2 49/5/104
f 49/5/104 6/2/2 3/1/1
s 2
f 4/19/5 9/22/7 44/26/105
f 44/26/105 9/22/7 46/27/106
s 25
f 62/115/107 53/30/108 11/116/109
f 11/116/109 53/30/108 52/25/110
s 26
f 10/31/111 57/34/112 60/24/113
f 60/24/113 57/34/112 56/28/114
s 1
f 61/7/115 6/2/2 58/12/116
f 58/12/116 6/2/2 50/6/103
f 54/8/117 7/3/4 61/7/115
f 61/7/115 7/3/4 6/2/2
s 2
f 9/22/7 8/21/8 60/24/118
f 60/24/118 8/21/8 52/25/119
f 46/27/106 9/22/7 56/28/120
f 56/28/120 9/22/7 60/24/118
s 6
f 51/11/102 48/10/100 12/16/21
f 12/16/21 48/10/100 13/17/22
s 7
f 47/33/98 14/35/25 45/32/97
f 45/32/97 14/35/25 15/36/27
s 8
f 21/60/121 29/61/122 51/11/123
f 51/11/123 12/16/31 21/60/121
f 21/60/121 12/16/31 22/58/32
f 47/33/124 23/57/125 14/35/37
f 14/35/37 23/57/125 24/55/38
f 47/33/124 28/59/126 23/57/125
s 30
f 58/12/127 59/18/128 61/7/129
f 61/7/129 59/18/128 37/14/130
s 2
f 52/25/119 8/21/8 42/29/131
s 31
f 54/8/132 11/116/133 43/15/134
f 43/15/134 11/116/133 41/66/135
s 1
f 7/3/4 54/8/117 43/15/136
s 32
f 57/34/137 10/31/138 65/83/139
f 65/83/139 10/31/138 64/114/140
f 53/30/141 62/115/142 10/31/138
f 10/31/138 62/115/142 64/114/140
s 33
f 52/25/143 53/30/144 60/24/145
f 60/24/145 53/30/144 10/31/146
s 34
f 54/8/147 61/7/148 55/13/149
f 55/13/149 61/7/148 37/14/150
s 25
f 62/115/107 11/116/109 55/13/151
f 55/13/151 11/116/109 54/8/152
s 31
f 41/66/135 11/116/133 42/29/153
f 42/29/153 11/116/133 52/25/154
s 5
f 38/64/20 75/63/18 40/68/155
f 40/68/155 75/63/18 8/67/156
s 3
f 4/93/157 74/90/10 1/94/158
f 1/94/158 74/90/10 5/89/9
f 63/102/159 77/98/160 32/103/161
f 32/103/161 77/98/160 45/100/162
s 32
f 64/114/140 62/115/142 37/14/163
f 37/14/163 62/115/142 55/13/164
f 65/83/139 64/114/140 59/18/165
f 59/18/165 64/114/140 37/14/163
s 37
f 72/78/166 70/79/167 56/28/168
f 56/28/168 70/79/167 46/80/169
s 38
f 50/86/170 51/117/171 68/85/172
f 68/85/172 51/117/171 29/118/173
s 39
f 66/82/174 65/83/175 71/84/176
f 71/84/176 65/83/175 59/18/177
f 56/28/178 57/34/179 72/78/180
s 37
f 66/82/181 71/84/182 67/81/183
f 67/81/183 71/84/182 68/85/184
s 38
f 68/85/172 29/118/173 67/81/185
f 67/81/185 29/118/173 69/119/186
f 67/81/185 69/119/186 70/79/187
f 70/79/187 69/119/186 28/120/188
s 42
f 28/120/189 47/121/190 70/79/191
f 70/79/191 47/121/190 46/80/192
s 39
f 71/84/176 59/18/177 58/12/193
s 37
f 71/84/182 58/12/194 68/85/184
f 68/85/184 58/12/194 50/86/195
s 39
f 72/78/180 57/34/179 66/82/174
f 66/82/174 57/34/179 65/83/175
s 37
f 70/79/167 72/78/166 67/81/183
f 67/81/183 72/78/166 66/82/181
s 8
f 26/52/36 25/56/30 73/49/35
f 73/49/35 25/56/30 17/53/29
s 4
f 16/50/16 73/49/14 18/54/196
f 18/54/196 73/49/14 17/53/197
s 3
f 18/109/48 35/108/47 16/112/45
f 16/112/45 35/108/47 34/113/43
s 43
f 63/88/198 32/43/199 69/87/200
f 69/87/200 32/43/199 28/42/201
f 29/37/202 30/39/203 69/87/200
f 69/87/200 30/39/203 63/88/198
s 5
f 41/66/204 75/63/18 43/15/205
f 43/15/205 75/63/18 7/62/17
f 8/67/156 75/63/18 42/29/206
f 42/29/206 75/63/18 41/66/204
s 3
f 76/95/207 49/96/208 74/90/10
f 74/90/10 49/96/208 3/91/12
f 44/97/209 76/95/207 4/93/157
f 4/93/157 76/95/207 74/90/10
f 49/96/208 76/95/207 48/99/42
f 48/99/42 76/95/207 77/98/160
f 44/97/209 45/100/162 76/95/207
f 76/95/207 45/100/162 77/98/160
f 48/99/42 77/98/160 30/101/41
f 30/101/41 77/98/160 63/102/159
f 45/100/162 15/106/50 32/103/161
f 32/103/161 15/106/50 33/107/49
