# This file uses centimeters as units for non-parametric coordinates.

mtllib GR_Walls.mtl
g default
v 196.351593 220.000031 -325.000000
v 196.351608 -18.666842 -325.000000
v 196.351593 220.000031 325.000000
v 196.351608 -18.666842 325.000000
v 310.537537 220.000031 251.601624
v 310.537537 -18.666842 251.601624
v -339.462463 220.000031 251.601624
v -339.462463 -18.666842 251.601624
v -339.462463 220.000031 -250.000000
v -339.462463 -18.666842 -250.000000
v 310.537537 220.000031 -250.000000
v 310.537537 -18.666842 -250.000000
v -258.195435 -0.000000 286.883820
v 228.952591 -0.000000 286.883820
v -258.195435 0.000000 -286.883820
v 228.952591 0.000000 -286.883820
v -225.000000 220.000015 356.764130
v -225.000000 -18.666842 356.764130
v -225.000000 220.000015 -293.235870
v -225.000000 -18.666842 -293.235870
vt 0.416946 0.216511
vt 0.416946 0.003674
vt 0.996598 0.216511
vt 0.996598 0.003674
vt 0.995855 0.862791
vt 0.416187 0.862791
vt 0.416187 0.649948
vt 0.995855 0.649948
vt 0.417127 0.431565
vt 0.417127 0.218723
vt 0.996795 0.431565
vt 0.996795 0.218723
vt 0.003299 0.002382
vt 0.414040 0.002382
vt 0.003299 0.486157
vt 0.414040 0.486157
vt 0.417057 0.646721
vt 0.417057 0.433879
vt 0.996725 0.646721
vt 0.996725 0.433879
vn -1.000000 0.000000 0.000000
vn -1.000000 -0.000000 0.000000
vn -1.000000 -0.000000 0.000000
vn -1.000000 -0.000000 0.000000
vn 0.000000 0.000000 -1.000000
vn 0.000000 0.000000 -1.000000
vn 0.000000 0.000000 -1.000000
vn 0.000000 0.000000 -1.000000
vn 0.000000 0.000000 1.000000
vn 0.000000 0.000000 1.000000
vn 0.000000 0.000000 1.000000
vn 0.000000 0.000000 1.000000
vn 0.000000 1.000000 0.000000
vn 0.000000 1.000000 0.000000
vn 0.000000 1.000000 0.000000
vn 0.000000 1.000000 0.000000
vn 1.000000 0.000000 0.000000
vn 1.000000 0.000000 0.000000
vn 1.000000 0.000000 0.000000
vn 1.000000 0.000000 0.000000
s 1
g GR_Walls_1 New_Assets
usemtl M_GR_Walls
f 1/1/1 2/2/2 3/3/3
f 3/3/3 2/2/2 4/4/4
s 2
f 7/5/5 5/6/6 6/7/7
f 6/7/7 8/8/8 7/5/5
s 3
f 9/9/9 10/10/10 11/11/11
f 11/11/11 10/10/10 12/12/12
s 4
f 13/13/13 14/14/14 15/15/15
f 15/15/15 14/14/14 16/16/16
s 5
f 17/17/17 18/18/18 19/19/19
f 19/19/19 18/18/18 20/20/20
