# This file uses centimeters as units for non-parametric coordinates.

mtllib GR_TV.mtl
g default
v -59.934654 147.710999 -250.000000
v 59.934669 147.710999 -250.000000
v -59.934654 76.124359 -250.000000
v 59.934669 76.124359 -250.000000
v -54.330658 85.252144 -243.173691
v 54.330673 85.252144 -243.173691
v 54.330673 142.107025 -243.173691
v -54.330658 142.107025 -243.173691
v -59.934654 78.986603 -250.000000
v 59.934669 78.986603 -250.000000
v -59.934654 77.793694 -250.000000
v 59.934669 77.793694 -250.000000
v -59.934647 147.710999 -242.633224
v 59.934669 147.710999 -242.633224
v 59.934669 78.986603 -242.633224
v 59.934669 77.793694 -242.633224
v 59.934669 76.124359 -242.633224
v -59.934654 76.124359 -242.633224
v -59.934654 77.793694 -242.633224
v -59.934669 78.986603 -242.633224
v -56.311577 83.271225 -241.950592
v -56.541405 83.041412 -241.849030
v -56.790314 82.792496 -241.814697
v 56.311600 83.271225 -241.950592
v 56.541420 83.041412 -241.849030
v 56.790321 82.792496 -241.814697
v 56.790321 144.566681 -241.814697
v 56.541420 144.317780 -241.849030
v 56.311600 144.087952 -241.950592
v -56.790314 144.566681 -241.814697
v -56.541405 144.317780 -241.849030
v -56.311577 144.087952 -241.950592
v -59.934654 147.710999 -242.060226
v -59.862747 147.639099 -241.886612
v -59.689125 147.465485 -241.814697
v 59.934669 147.710999 -242.060226
v 59.862755 147.639099 -241.886612
v 59.689140 147.465485 -241.814697
v -59.934669 79.143913 -242.039276
v -59.864769 79.247917 -241.878235
v -59.687584 79.420227 -241.814697
v 59.934669 79.142960 -242.042923
v 59.863640 79.248642 -241.879272
v 59.683586 79.423744 -241.814697
v -59.770973 76.288040 -241.814697
v -59.886711 76.172302 -241.862640
v -59.934654 76.124359 -241.978394
v 59.770988 76.288040 -241.814697
v 59.886734 76.172302 -241.862640
v 59.934669 76.124359 -241.978394
v -59.769936 77.432343 -241.814697
v -59.888062 77.547211 -241.857056
v -59.934654 77.616547 -241.964417
v 59.767288 77.429993 -241.814697
v 59.887314 77.546738 -241.857727
v 59.934669 77.617188 -241.966858
vt 0.995359 0.094125
vt 0.995299 0.594867
vt 0.941622 0.594861
vt 0.941683 0.094118
vt 0.937448 0.594860
vt 0.937381 0.095257
vt 0.941684 0.085427
vt 0.995360 0.085433
vt 0.936183 0.594336
vt 0.936189 0.096027
vt 0.941685 0.073263
vt 0.995361 0.073270
vt 0.936914 0.073263
vt 0.936829 0.084140
vt 0.936070 0.073612
vt 0.936033 0.083627
vt 0.004718 0.594869
vt 0.004642 0.094127
vt 0.058318 0.094118
vt 0.058394 0.594861
vt 0.004641 0.085435
vt 0.058317 0.085427
vt 0.062646 0.095264
vt 0.062569 0.594860
vt 0.004639 0.073272
vt 0.058315 0.073264
vt 0.063834 0.594336
vt 0.063819 0.096022
vt 0.063086 0.073263
vt 0.063190 0.084135
vt 0.063930 0.073612
vt 0.063972 0.083630
vt 0.063310 0.599776
vt 0.936706 0.599776
vt 0.936706 0.653452
vt 0.063310 0.653452
vt 0.063310 0.595601
vt 0.936706 0.595601
vt 0.063312 0.006865
vt 0.936709 0.006886
vt 0.936707 0.060562
vt 0.063310 0.060541
vt 0.936707 0.065334
vt 0.063310 0.065312
vt 0.063660 0.066156
vt 0.936358 0.066177
vt 0.936706 0.090533
vt 0.936706 0.094835
vt 0.063310 0.094848
vt 0.063310 0.090521
vt 0.063310 0.081829
vt 0.063310 0.076956
vt 0.936707 0.076987
vt 0.936707 0.081842
vt 0.063650 0.076174
vt 0.936362 0.076191
vt 0.104142 0.139770
vt 0.895874 0.139770
vt 0.895874 0.554028
vt 0.104142 0.554028
vt 0.089709 0.125336
vt 0.910308 0.125336
vt 0.910308 0.568462
vt 0.089709 0.568462
vt 0.088034 0.123662
vt 0.911983 0.123662
vt 0.911983 0.570136
vt 0.088034 0.570136
vt 0.086220 0.121848
vt 0.913796 0.121848
vt 0.913796 0.571950
vt 0.086221 0.571950
vt 0.065110 0.097277
vt 0.934877 0.097303
vt 0.934917 0.593071
vt 0.065099 0.593071
vt 0.935487 0.075341
vt 0.064510 0.075337
vt 0.064503 0.066999
vt 0.935515 0.067020
vn 0.000000 0.000000 1.000000
vn 0.000000 0.000000 1.000000
vn 0.000000 0.000000 1.000000
vn 0.000000 0.000000 1.000000
vn 0.000000 1.000000 0.000000
vn 0.000000 1.000000 0.000000
vn 0.000000 1.000000 0.000002
vn 0.000000 1.000000 0.000000
vn 0.000000 -1.000000 0.000000
vn 0.000000 -1.000000 0.000000
vn 0.000000 -1.000000 0.000000
vn 0.000000 -1.000000 0.000000
vn 1.000000 0.000000 0.000000
vn 1.000000 0.000000 0.000000
vn 1.000000 0.000000 0.000000
vn 1.000000 -0.000000 0.000000
vn -1.000000 0.000000 0.000001
vn -1.000000 0.000000 -0.000002
vn -1.000000 0.000000 -0.000000
vn -1.000000 0.000000 -0.000002
vn -1.000000 0.000000 0.000000
vn -1.000000 -0.000005 -0.000001
vn 1.000000 0.000000 0.000000
vn 1.000000 0.000000 0.000000
vn -1.000000 0.000000 0.000000
vn -1.000000 0.000000 0.000000
vn 1.000000 -0.000000 0.000000
vn 1.000000 0.000000 0.000000
vn 0.000000 0.000000 1.000000
vn 0.000000 0.000000 1.000000
vn 0.000000 0.000000 1.000000
vn 0.000000 0.000000 1.000000
vn 0.001209 0.002212 0.999997
vn 0.074027 0.135766 0.987971
vn 0.001351 -0.002501 0.999996
vn 0.073422 -0.136346 0.987937
vn 0.497587 0.000000 0.867414
vn 0.499052 0.000000 0.866572
vn 0.000000 0.499082 0.866555
vn 0.000000 0.498268 0.867023
vn 0.000000 0.525363 0.850878
vn 0.000000 0.525368 0.850875
vn -0.499063 0.000000 0.866565
vn -0.497579 0.000000 0.867419
vn -0.525362 0.000000 0.850879
vn -0.525374 0.000000 0.850871
vn 0.000000 -0.499070 0.866562
vn 0.000000 -0.498258 0.867029
vn 0.000000 -0.525364 0.850878
vn 0.000000 -0.525364 0.850878
vn 0.525362 0.000000 0.850879
vn 0.525376 0.000000 0.850870
vn -0.073430 0.136337 0.987937
vn -0.001164 0.002156 0.999997
vn -0.074019 -0.135772 0.987971
vn -0.001322 -0.002413 0.999996
vn 0.000000 0.996965 0.077853
vn 0.000000 0.996969 0.077805
vn 0.998284 0.000008 0.058567
vn 0.996962 0.000020 0.077884
vn -0.998341 0.000018 0.057584
vn -0.996977 0.000015 0.077697
vn 0.000000 -0.966665 0.256044
vn 0.000002 -0.948945 0.315441
vn 0.000000 -0.966674 0.256012
vn 0.000002 -0.949320 0.314313
vn 0.018019 -0.032067 0.999323
vn 0.023280 0.040655 0.998902
vn -0.023793 0.041857 0.998840
vn -0.018381 -0.032430 0.999305
vn 0.000000 0.923927 0.382569
vn 0.000000 0.923915 0.382599
vn 0.000000 0.382703 0.923871
vn 0.000000 0.382678 0.923882
vn 0.923846 0.000097 0.382765
vn 0.917347 0.000055 0.398088
vn 0.382664 0.000104 0.923888
vn 0.130476 -0.222224 0.966226
vn -0.382602 -0.000008 0.923913
vn -0.131089 -0.221502 0.966309
vn -0.923858 0.000074 0.382736
vn -0.917319 0.000122 0.398153
vn 0.000010 -0.840066 0.542485
vn 0.000010 -0.840049 0.542511
vn 0.000555 0.048456 0.998825
vn -0.000451 0.047885 0.998853
vn 0.000515 -0.053908 0.998546
vn -0.000605 -0.053647 0.998560
vn 0.998954 -0.000224 0.045733
vn 0.999408 -0.000267 0.034415
vn 0.000000 -0.998781 0.049371
vn 0.000000 -0.998779 0.049402
vn -0.999426 -0.000316 0.033863
vn -0.998958 -0.000299 0.045648
vn 0.000000 0.966672 0.256017
vn 0.000001 0.955935 0.293577
vn 0.000000 0.966662 0.256054
vn 0.000001 0.955735 0.294230
vn 0.000000 -0.382740 0.923856
vn 0.000000 -0.382678 0.923882
vn 0.000000 -0.923892 0.382653
vn 0.000000 -0.923917 0.382593
vn 0.377455 0.000547 0.926028
vn 0.004113 0.342113 0.939650
vn 0.923664 -0.001758 0.383199
vn 0.918300 -0.003012 0.395874
vn -0.923513 -0.002467 0.383561
vn -0.918444 -0.003658 0.395534
vn -0.379356 -0.004130 0.925242
vn -0.003517 0.342861 0.939380
vn 0.000007 0.840067 0.542482
vn 0.000006 0.840115 0.542409
s 1
g GR_TV_1 New_Assets
usemtl M_GR_TV
f 5/57/1 6/58/2 8/60/3
f 8/60/3 6/58/2 7/59/4
s 2
f 13/33/5 14/34/6 1/36/7
f 1/36/7 14/34/6 2/35/8
s 3
f 3/39/9 4/40/10 18/42/11
f 18/42/11 4/40/10 17/41/12
s 4
f 10/1/13 2/2/14 15/4/15
f 15/4/15 2/2/14 14/3/16
s 5
f 1/17/17 9/18/18 13/20/19
f 13/20/19 9/18/18 20/19/20
f 11/21/21 19/22/22 9/18/18
f 9/18/18 19/22/22 20/19/20
s 4
f 15/4/15 16/7/23 10/1/13
f 10/1/13 16/7/23 12/8/24
s 5
f 3/25/25 18/26/26 11/21/21
f 11/21/21 18/26/26 19/22/22
s 4
f 16/7/23 17/11/27 12/8/24
f 12/8/24 17/11/27 4/12/28
s 7
f 20/50/29 19/51/30 15/47/31
f 15/47/31 19/51/30 16/54/32
s 8
f 23/69/33 22/65/34 30/72/35
f 30/72/35 22/65/34 31/68/36
f 22/65/34 21/61/37 31/68/36
f 31/68/36 21/61/37 32/64/38
f 21/61/39 24/62/40 5/57/41
f 5/57/41 24/62/40 6/58/42
f 24/62/43 29/63/44 6/58/45
f 6/58/45 29/63/44 7/59/46
f 29/63/47 32/64/48 7/59/49
f 7/59/49 32/64/48 8/60/50
f 32/64/38 21/61/37 8/60/51
f 8/60/51 21/61/37 5/57/52
f 21/61/39 22/65/34 24/62/40
f 24/62/40 22/65/34 25/66/53
f 22/65/34 23/69/33 25/66/53
f 25/66/53 23/69/33 26/70/54
f 24/62/43 25/66/53 29/63/44
f 29/63/44 25/66/53 28/67/55
f 25/66/53 26/70/54 28/67/55
f 28/67/55 26/70/54 27/71/56
f 29/63/47 28/67/55 32/64/48
f 32/64/48 28/67/55 31/68/36
f 28/67/55 27/71/56 31/68/36
f 31/68/36 27/71/56 30/72/35
s 2
f 33/37/57 36/38/58 13/33/5
f 13/33/5 36/38/58 14/34/6
s 4
f 15/4/15 14/3/16 42/6/59
f 42/6/59 14/3/16 36/5/60
s 5
f 20/19/20 39/23/61 13/20/19
f 13/20/19 39/23/61 33/24/62
s 13
f 15/47/63 42/48/64 20/50/65
f 20/50/65 42/48/64 39/49/66
s 8
f 44/74/67 38/75/68 26/70/54
f 26/70/54 38/75/68 27/71/56
f 38/75/68 35/76/69 27/71/56
f 27/71/56 35/76/69 30/72/35
f 23/69/33 41/73/70 26/70/54
f 26/70/54 41/73/70 44/74/67
f 41/73/70 23/69/33 35/76/69
f 35/76/69 23/69/33 30/72/35
s 2
f 33/37/57 34/27/71 36/38/58
f 36/38/58 34/27/71 37/9/72
s 8
f 34/27/73 35/76/69 37/9/74
f 37/9/74 35/76/69 38/75/68
s 4
f 36/5/60 37/9/75 42/6/59
f 42/6/59 37/9/75 43/10/76
s 8
f 37/9/77 38/75/68 43/10/78
f 43/10/78 38/75/68 44/74/67
f 35/76/69 34/27/79 41/73/70
f 41/73/70 34/27/79 40/28/80
s 5
f 34/27/81 33/24/62 40/28/82
f 40/28/82 33/24/62 39/23/61
s 8
f 41/73/70 40/28/80 44/74/67
f 44/74/67 40/28/80 43/10/78
s 13
f 40/28/83 39/49/66 43/10/84
f 43/10/84 39/49/66 42/48/64
s 15
f 54/77/85 51/78/86 48/80/87
f 48/80/87 51/78/86 45/79/88
s 4
f 50/13/89 17/11/27 56/14/90
f 56/14/90 17/11/27 16/7/23
s 3
f 18/42/11 17/41/12 47/44/91
f 47/44/91 17/41/12 50/43/92
s 5
f 19/22/22 18/26/26 53/30/93
f 53/30/93 18/26/26 47/29/94
s 16
f 19/51/95 53/52/96 16/54/97
f 16/54/97 53/52/96 56/53/98
s 15
f 45/79/88 46/45/99 48/80/87
f 48/80/87 46/45/99 49/46/100
s 3
f 46/45/101 47/44/91 49/46/102
f 49/46/102 47/44/91 50/43/92
s 15
f 48/80/87 49/46/103 54/77/85
f 54/77/85 49/46/103 55/56/104
s 4
f 49/15/105 50/13/89 55/16/106
f 55/16/106 50/13/89 56/14/90
s 5
f 46/31/107 52/32/108 47/29/94
f 47/29/94 52/32/108 53/30/93
s 15
f 46/45/109 45/79/88 52/55/110
f 52/55/110 45/79/88 51/78/86
s 16
f 53/52/96 52/55/111 56/53/98
f 56/53/98 52/55/111 55/56/112
s 15
f 52/55/110 51/78/86 55/56/104
f 55/56/104 51/78/86 54/77/85
