# This file uses centimeters as units for non-parametric coordinates.

mtllib GR_Table.mtl
g default
v -35.333336 4.273792 -240.186432
v 35.333336 4.273792 -240.186432
v 35.333336 4.273792 -195.558502
v -35.333336 4.273792 -195.558502
v -35.333336 0.000000 -240.186432
v 35.333336 0.000000 -240.186432
v 35.333336 0.000000 -195.558502
v -35.333336 0.000000 -195.558502
v -39.943516 4.466646 -192.928955
v -40.000000 4.466646 -193.065323
v -39.943516 4.330278 -193.065323
v -39.807148 4.273792 -193.065323
v -39.807148 4.330278 -192.928955
v -39.807148 4.466646 -192.872467
v 39.807144 4.330278 -192.928955
v 39.807144 4.273792 -193.065323
v 39.943512 4.330278 -193.065323
v 40.000000 4.466646 -193.065323
v 39.943512 4.466646 -192.928955
v 39.807144 4.466646 -192.872467
v -39.807148 23.504616 -192.928955
v -39.807148 23.561102 -193.065323
v -39.943516 23.504616 -193.065323
v -40.000000 23.368248 -193.065323
v -39.943516 23.368248 -192.928955
v -39.807148 23.368248 -192.872467
v 39.943512 23.368248 -192.928955
v 40.000000 23.368248 -193.065323
v 39.943512 23.504616 -193.065323
v 39.807144 23.561102 -193.065323
v 39.807144 23.504616 -192.928955
v 39.807144 23.368248 -192.872467
v -39.943516 23.368248 -242.815964
v -40.000000 23.368248 -242.679596
v -39.943516 23.504616 -242.679596
v -39.807148 23.561102 -242.679596
v -39.807148 23.504616 -242.815964
v -39.807148 23.368248 -242.872452
v 39.807144 23.504616 -242.815964
v 39.807144 23.561102 -242.679596
v 39.943512 23.504616 -242.679596
v 40.000000 23.368248 -242.679596
v 39.943512 23.368248 -242.815964
v 39.807144 23.368248 -242.872452
v -39.807148 4.330278 -242.815964
v -39.807148 4.273792 -242.679596
v -39.943516 4.330278 -242.679596
v -40.000000 4.466646 -242.679596
v -39.943516 4.466646 -242.815964
v -39.807148 4.466646 -242.872452
v 39.943512 4.466646 -242.815964
v 40.000000 4.466646 -242.679596
v 39.943512 4.330278 -242.679596
v 39.807144 4.273792 -242.679596
v 39.807144 4.330278 -242.815964
v 39.807144 4.466646 -242.872452
v -39.918453 4.355341 -192.954010
v 39.918449 4.355341 -192.954010
v -39.918453 23.479553 -192.954010
v 39.918449 23.479553 -192.954010
v -39.918453 23.479553 -242.790909
v 39.918449 23.479553 -242.790909
v -39.918453 4.355341 -242.790909
v 39.918449 4.355341 -242.790909
v -38.115181 5.688792 -193.037018
v -38.163380 5.640594 -192.920670
v -38.279739 5.524235 -192.872467
v 38.115185 5.688792 -193.037018
v 38.163383 5.640594 -192.920670
v 38.279739 5.524235 -192.872467
v 38.115185 22.146101 -193.037018
v 38.163383 22.194298 -192.920670
v 38.279739 22.310658 -192.872467
v -38.115181 22.146101 -193.037018
v -38.163380 22.194298 -192.920670
v -38.279739 22.310658 -192.872467
v -38.115181 22.146101 -242.707901
v -38.163380 22.194298 -242.824249
v -38.279739 22.310658 -242.872452
v 38.115185 22.146101 -242.707901
v 38.163383 22.194298 -242.824249
v 38.279739 22.310658 -242.872452
v 38.115185 5.688792 -242.707901
v 38.163383 5.640594 -242.824249
v 38.279739 5.524235 -242.872452
v -38.115181 5.688792 -242.707901
v -38.163380 5.640594 -242.824249
v -38.279739 5.524235 -242.872452
vt 0.695628 0.387024
vt 0.695628 0.157984
vt 0.717562 0.157984
vt 0.717562 0.387024
vt 0.041497 0.157984
vt 0.041497 0.387024
vt 0.019563 0.387024
vt 0.019563 0.157984
vt 0.065857 0.145188
vt 0.065857 0.144489
vt 0.162864 0.144489
vt 0.162864 0.145188
vt 0.065157 0.145188
vt 0.065286 0.144617
vt 0.163564 0.145188
vt 0.163435 0.144617
vt 0.065857 0.399819
vt 0.162864 0.399819
vt 0.065157 0.399819
vt 0.163564 0.399819
vt 0.162864 0.400519
vt 0.065857 0.400519
vt 0.065286 0.400391
vt 0.163435 0.400391
vt 0.671268 0.145188
vt 0.671968 0.145188
vt 0.671967 0.399819
vt 0.671268 0.399819
vt 0.671268 0.144488
vt 0.671839 0.144617
vt 0.671268 0.400519
vt 0.671839 0.400390
vt 0.574261 0.399819
vt 0.574261 0.145188
vt 0.574261 0.144488
vt 0.574261 0.400519
vt 0.573561 0.145188
vt 0.573561 0.399819
vt 0.573689 0.144617
vt 0.573689 0.400390
vt 0.956351 0.546129
vt 0.956351 0.800838
vt 0.871960 0.800838
vt 0.871960 0.546128
vt 0.956599 0.801434
vt 0.871712 0.801434
vt 0.871712 0.545532
vt 0.956599 0.545532
vt 0.396663 0.546128
vt 0.481055 0.546128
vt 0.481055 0.800838
vt 0.396663 0.800838
vt 0.481302 0.545532
vt 0.396415 0.545532
vt 0.396415 0.801434
vt 0.481302 0.801434
vt 0.064457 0.145188
vt 0.163564 0.045382
vt 0.164264 0.499626
vt 0.164264 0.046082
vt 0.163693 0.045953
vt 0.164264 0.498926
vt 0.163693 0.499054
vt 0.187224 0.032586
vt 0.572861 0.045382
vt 0.572861 0.046082
vt 0.572861 0.498926
vt 0.672667 0.399819
vt 0.549900 0.512421
vt 0.573432 0.045953
vt 0.573561 0.499626
vt 0.573432 0.499054
vt 0.164264 0.145188
vt 0.164264 0.144488
vt 0.572861 0.144488
vt 0.572861 0.145188
vt 0.163693 0.144617
vt 0.573432 0.144617
vt 0.572861 0.399819
vt 0.164264 0.399819
vt 0.164264 0.400519
vt 0.572861 0.400519
vt 0.163693 0.400391
vt 0.573432 0.400391
vt 0.480807 0.545532
vt 0.872207 0.545532
vt 0.872207 0.801434
vt 0.480807 0.801434
vt 0.005758 0.546128
vt 0.005758 0.800837
vt 0.005511 0.545531
vt 0.396910 0.545532
vt 0.396910 0.801434
vt 0.005511 0.801434
vt 0.187224 0.512421
vt 0.549900 0.534355
vt 0.187224 0.534355
vt 0.549900 0.032586
vt 0.187224 0.010652
vt 0.549900 0.010652
vt 0.163564 0.046782
vt 0.164264 0.046782
vt 0.164264 0.143789
vt 0.163564 0.143789
vt 0.163693 0.046210
vt 0.172103 0.052209
vt 0.172103 0.138361
vt 0.163693 0.144360
vt 0.572861 0.046782
vt 0.565022 0.052209
vt 0.172700 0.052807
vt 0.172700 0.137764
vt 0.572861 0.143789
vt 0.565022 0.138361
vt 0.573561 0.046782
vt 0.573432 0.046210
vt 0.564425 0.052807
vt 0.564425 0.137764
vt 0.573561 0.143789
vt 0.573432 0.144360
vt 0.163564 0.401219
vt 0.164264 0.401219
vt 0.164264 0.498226
vt 0.163564 0.498226
vt 0.163692 0.400648
vt 0.172103 0.406647
vt 0.172103 0.492798
vt 0.163692 0.498797
vt 0.572861 0.401219
vt 0.565022 0.406647
vt 0.172700 0.407244
vt 0.172700 0.492201
vt 0.572861 0.498226
vt 0.565022 0.492798
vt 0.573561 0.401219
vt 0.573432 0.400648
vt 0.564425 0.407244
vt 0.564425 0.492201
vt 0.573561 0.498226
vt 0.573432 0.498797
vt 0.164264 0.045382
vt 0.672667 0.145188
vt 0.064457 0.399819
vt 0.572861 0.499626
vt 0.573561 0.045382
vt 0.163564 0.499626
vn 0.000000 0.000000 -1.000000
vn 0.000000 0.000000 -1.000000
vn 0.000000 0.000000 -1.000000
vn 0.000000 0.000000 -1.000000
vn 1.000000 0.000000 0.000000
vn 1.000000 0.000000 0.000000
vn 1.000000 0.000000 0.000000
vn 1.000000 0.000000 0.000000
vn 0.000000 0.000000 1.000000
vn 0.000000 0.000000 1.000000
vn 0.000000 0.000000 1.000000
vn 0.000000 0.000000 1.000000
vn -1.000000 0.000000 0.000000
vn -1.000000 0.000000 0.000000
vn -1.000000 0.000000 0.000000
vn -1.000000 0.000000 0.000000
vn -0.999995 -0.002964 0.001133
vn -0.923910 -0.001595 0.382606
vn -0.999995 0.002964 0.001133
vn -0.923859 0.001595 0.382729
vn -0.382746 -0.001595 0.923852
vn -0.017302 -0.072602 0.997211
vn -0.382598 0.001595 0.923914
vn -0.017133 0.071919 0.997263
vn -0.012460 -0.999723 0.019981
vn -0.382681 -0.923880 0.000610
vn -0.012859 -0.999705 -0.020621
vn -0.382681 -0.923880 -0.000610
vn -0.923903 -0.382627 0.000610
vn -0.923868 -0.382711 -0.000610
vn -0.999995 -0.002964 -0.001133
vn -0.000380 -0.382699 0.923873
vn 0.017129 -0.071918 0.997263
vn 0.000380 -0.382695 0.923875
vn -0.000380 -0.923881 0.382681
vn 0.000380 -0.923879 0.382685
vn 0.012859 -0.999705 0.020621
vn 0.999995 -0.002964 0.001133
vn 0.923868 -0.382712 0.000610
vn 0.999995 -0.002964 -0.001133
vn 0.923880 -0.382683 -0.000610
vn 0.382681 -0.923880 0.000610
vn 0.382693 -0.923876 -0.000610
vn 0.012460 -0.999723 -0.019981
vn 0.382598 -0.001595 0.923914
vn 0.017306 0.072602 0.997211
vn 0.382746 0.001595 0.923852
vn 0.923850 -0.001596 0.382751
vn 0.923901 0.001595 0.382628
vn 0.999995 0.002964 0.001133
vn -0.000708 0.999999 0.001135
vn -0.000380 0.923879 0.382685
vn 0.000708 0.999999 0.001135
vn 0.000380 0.923871 0.382703
vn -0.000380 0.382703 0.923872
vn 0.000380 0.382695 0.923874
vn -0.923867 0.382713 0.000610
vn -0.999995 0.002964 -0.001133
vn -0.923903 0.382628 -0.000610
vn -0.382684 0.923879 0.000610
vn -0.382684 0.923879 -0.000610
vn -0.000708 0.999999 -0.001135
vn 0.382695 0.923874 0.000610
vn 0.000708 0.999999 -0.001135
vn 0.382684 0.923879 -0.000610
vn 0.923879 0.382684 0.000610
vn 0.923867 0.382713 -0.000610
vn 0.999995 0.002964 -0.001133
vn -0.923859 0.001595 -0.382729
vn -0.923910 -0.001595 -0.382607
vn -0.382598 0.001595 -0.923914
vn -0.017294 0.072602 -0.997211
vn -0.382598 -0.001595 -0.923914
vn -0.017138 -0.071918 -0.997263
vn -0.000380 0.382696 -0.923874
vn 0.017135 0.071919 -0.997263
vn 0.000380 0.382703 -0.923871
vn -0.000380 0.923871 -0.382703
vn 0.000380 0.923879 -0.382685
vn 0.382598 0.001595 -0.923913
vn 0.017298 -0.072602 -0.997211
vn 0.382598 -0.001595 -0.923914
vn 0.923901 0.001595 -0.382629
vn 0.923850 -0.001596 -0.382751
vn -0.000380 -0.923879 -0.382685
vn 0.000380 -0.923881 -0.382681
vn -0.000380 -0.382695 -0.923875
vn 0.000380 -0.382699 -0.923873
vn 0.000000 -1.000000 -0.000000
vn 0.000000 -1.000000 0.000000
vn 0.000000 -1.000000 -0.000000
vn 0.000000 -1.000000 0.000000
vn -0.325277 -0.325255 0.887921
vn -0.887945 -0.325230 0.325237
vn -0.325288 -0.887917 0.325255
vn 0.325277 -0.325255 0.887921
vn 0.325290 -0.887916 0.325258
vn 0.887931 -0.325259 0.325246
vn -0.325249 0.325257 0.887931
vn -0.325287 0.887916 0.325260
vn -0.887928 0.325253 0.325260
vn 0.325250 0.325257 0.887931
vn 0.887914 0.325283 0.325269
vn 0.325289 0.887914 0.325262
vn -0.325325 0.325248 -0.887906
vn -0.887934 0.325244 -0.325253
vn -0.325288 0.887916 -0.325259
vn 0.325325 0.325247 -0.887906
vn 0.325289 0.887914 -0.325262
vn 0.887920 0.325274 -0.325262
vn -0.325277 -0.325255 -0.887921
vn -0.325213 -0.887941 -0.325264
vn -0.887904 -0.325285 -0.325294
vn 0.325276 -0.325255 -0.887921
vn 0.887890 -0.325311 -0.325307
vn 0.325213 -0.887940 -0.325268
vn 0.000000 0.999999 0.001193
vn 0.000000 0.999999 0.001194
vn 0.000000 0.999999 -0.001194
vn 0.000000 0.999999 -0.001193
vn 0.000000 -0.999999 0.001193
vn 0.000000 -0.999999 0.001194
vn 0.000000 -0.999999 -0.001194
vn 0.000000 -0.999999 -0.001193
vn -0.999999 0.000000 0.001200
vn -0.999999 0.000000 -0.001193
vn -0.999999 0.000000 0.001193
vn -0.999999 0.000000 -0.001200
vn 0.999999 0.000000 0.001193
vn 0.999999 0.000000 0.001200
vn 0.999999 0.000000 -0.001200
vn 0.999999 0.000000 -0.001193
vn 0.002400 0.010908 0.999938
vn -0.002377 0.010997 0.999937
vn -0.002397 -0.010909 0.999938
vn 0.002375 -0.010997 0.999937
vn 0.002399 -0.010908 -0.999938
vn -0.002374 -0.010997 -0.999937
vn -0.002396 0.010909 -0.999938
vn 0.002373 0.010996 -0.999937
vn 0.000000 0.923866 0.382715
vn 0.000000 0.923870 0.382708
vn 0.000000 0.382714 0.923867
vn 0.000000 0.382717 0.923866
vn -0.923848 0.000000 0.382760
vn -0.923874 0.000000 0.382697
vn -0.382494 0.000000 0.923958
vn -0.382958 0.000000 0.923766
vn 0.000000 -0.923860 0.382732
vn 0.000000 -0.923867 0.382714
vn 0.000000 -0.382734 0.923859
vn 0.000000 -0.382711 0.923868
vn 0.382885 0.000000 0.923796
vn 0.382548 0.000000 0.923936
vn 0.923849 0.000000 0.382758
vn 0.923873 0.000000 0.382700
vn 0.000000 -0.923860 -0.382732
vn 0.000000 -0.923867 -0.382715
vn 0.000000 -0.382725 -0.923862
vn 0.000000 -0.382713 -0.923867
vn -0.923848 0.000000 -0.382760
vn -0.923870 0.000000 -0.382707
vn -0.382694 0.000000 -0.923875
vn -0.382832 0.000000 -0.923818
vn 0.000000 0.923866 -0.382716
vn 0.000000 0.923870 -0.382708
vn 0.000000 0.382712 -0.923868
vn 0.000000 0.382720 -0.923865
vn 0.382689 0.000000 -0.923877
vn 0.382818 0.000000 -0.923824
vn 0.923883 0.000000 -0.382675
vn 0.923834 0.000000 -0.382792
s 1
g GR_Table_1 New_Assets
usemtl M_GR_Table
f 1/95/1 2/69/2 5/97/3
f 5/97/3 2/69/2 6/96/4
s 2
f 2/1/5 3/2/6 6/4/7
f 6/4/7 3/2/6 7/3/8
s 3
f 3/98/9 4/64/10 7/100/11
f 7/100/11 4/64/10 8/99/12
s 4
f 4/5/13 1/6/14 8/8/15
f 8/8/15 1/6/14 5/7/16
s 5
f 10/9/17 9/10/18 24/12/19
f 24/12/19 9/10/18 25/11/20
s 6
f 9/101/21 14/102/22 25/104/23
f 25/104/23 14/102/22 26/103/24
s 7
f 12/57/25 11/13/26 46/143/27
f 46/143/27 11/13/26 47/19/28
s 5
f 11/13/29 10/9/17 47/19/30
f 47/19/30 10/9/17 48/17/31
s 6
f 14/102/22 13/60/32 20/109/33
f 20/109/33 13/60/32 15/66/34
s 7
f 13/60/35 12/141/25 15/66/36
f 15/66/36 12/141/25 16/65/37
s 11
f 18/25/38 17/26/39 52/28/40
f 52/28/40 17/26/39 53/27/41
s 7
f 17/26/42 16/142/37 53/27/43
f 53/27/43 16/142/37 54/68/44
s 6
f 20/109/33 19/115/45 32/113/46
f 32/113/46 19/115/45 27/119/47
s 11
f 19/29/48 18/25/38 27/35/49
f 27/35/49 18/25/38 28/34/50
s 15
f 22/73/51 21/74/52 30/76/53
f 30/76/53 21/74/52 31/75/54
s 6
f 21/74/55 26/103/24 31/75/56
f 31/75/56 26/103/24 32/113/46
s 5
f 24/12/19 23/15/57 34/18/58
f 34/18/58 23/15/57 35/20/59
s 15
f 23/15/60 22/73/51 35/20/61
f 35/20/61 22/73/51 36/80/62
f 30/76/53 29/37/63 40/79/64
f 40/79/64 29/37/63 41/38/65
s 11
f 29/37/66 28/34/50 41/38/67
f 41/38/67 28/34/50 42/33/68
s 5
f 34/18/58 33/21/69 48/17/31
f 48/17/31 33/21/69 49/22/70
s 22
f 33/121/71 38/122/72 49/124/73
f 49/124/73 38/122/72 50/123/74
f 38/122/72 37/81/75 44/129/76
f 44/129/76 37/81/75 39/82/77
s 15
f 37/81/78 36/80/62 39/82/79
f 39/82/79 36/80/62 40/79/64
s 22
f 44/129/76 43/135/80 56/133/81
f 56/133/81 43/135/80 51/139/82
s 11
f 43/36/83 42/33/68 51/31/84
f 51/31/84 42/33/68 52/28/40
s 7
f 46/59/27 45/62/85 54/144/44
f 54/144/44 45/62/85 55/67/86
s 22
f 45/62/87 50/123/74 55/67/88
f 55/67/88 50/123/74 56/133/81
s 15
f 22/73/51 30/76/53 36/80/62
f 36/80/62 30/76/53 40/79/64
s 11
f 18/25/38 52/28/40 28/34/50
f 28/34/50 52/28/40 42/33/68
s 5
f 48/17/31 10/9/17 34/18/58
f 34/18/58 10/9/17 24/12/19
s 7
f 46/59/27 54/144/44 1/95/89
f 1/95/89 54/144/44 2/69/90
f 54/68/44 16/142/37 2/1/90
f 2/1/90 16/142/37 3/2/91
f 16/65/37 12/141/25 3/98/91
f 3/98/91 12/141/25 4/64/92
f 12/57/25 46/143/27 4/5/92
f 4/5/92 46/143/27 1/6/89
s 6
f 13/60/32 14/102/22 57/105/93
f 57/105/93 14/102/22 9/101/21
s 5
f 9/10/18 10/9/17 57/14/94
f 57/14/94 10/9/17 11/13/29
s 7
f 11/58/26 12/141/25 57/61/95
f 57/61/95 12/141/25 13/60/35
s 6
f 19/115/45 20/109/33 58/116/96
f 58/116/96 20/109/33 15/66/34
s 7
f 15/66/36 16/65/37 58/70/97
f 58/70/97 16/65/37 17/145/42
s 11
f 17/26/39 18/25/38 58/30/98
f 58/30/98 18/25/38 19/29/48
s 6
f 25/104/23 26/103/24 59/108/99
f 59/108/99 26/103/24 21/74/55
s 15
f 21/74/52 22/73/51 59/77/100
f 59/77/100 22/73/51 23/15/60
s 5
f 23/15/57 24/12/19 59/16/101
f 59/16/101 24/12/19 25/11/20
s 6
f 31/75/56 32/113/46 60/120/102
f 60/120/102 32/113/46 27/119/47
s 11
f 27/35/49 28/34/50 60/39/103
f 60/39/103 28/34/50 29/37/66
s 15
f 29/37/63 30/76/53 60/78/104
f 60/78/104 30/76/53 31/75/54
s 22
f 37/81/75 38/122/72 61/125/105
f 61/125/105 38/122/72 33/121/71
s 5
f 33/21/69 34/18/58 61/24/106
f 61/24/106 34/18/58 35/20/59
s 15
f 35/20/61 36/80/62 61/83/107
f 61/83/107 36/80/62 37/81/78
s 22
f 43/135/80 44/129/76 62/136/108
f 62/136/108 44/129/76 39/82/77
s 15
f 39/82/79 40/79/64 62/84/109
f 62/84/109 40/79/64 41/38/65
s 11
f 41/38/67 42/33/68 62/40/110
f 62/40/110 42/33/68 43/36/83
s 22
f 49/124/73 50/123/74 63/128/111
f 63/128/111 50/123/74 45/62/87
s 7
f 45/62/85 46/59/27 63/63/112
f 63/63/112 46/59/27 47/146/28
s 5
f 47/19/30 48/17/31 63/23/113
f 63/23/113 48/17/31 49/22/70
s 22
f 55/67/88 56/133/81 64/140/114
f 64/140/114 56/133/81 51/139/82
s 11
f 51/31/84 52/28/40 64/32/115
f 64/32/115 52/28/40 53/27/41
s 7
f 53/71/43 54/144/44 64/72/116
f 64/72/116 54/144/44 55/67/86
s 29
f 65/50/117 68/44/118 86/51/119
f 86/51/119 68/44/118 83/43/120
s 30
f 71/89/121 74/49/122 80/90/123
f 80/90/123 74/49/122 77/52/124
s 31
f 71/41/125 80/42/126 68/44/127
f 68/44/127 80/42/126 83/43/128
s 32
f 74/49/129 65/50/130 77/52/131
f 77/52/131 65/50/130 86/51/132
s 6
f 14/102/22 20/109/33 67/106/133
f 67/106/133 20/109/33 70/110/134
f 20/109/33 32/113/46 70/110/134
f 70/110/134 32/113/46 73/114/135
f 32/113/46 26/103/24 73/114/135
f 73/114/135 26/103/24 76/107/136
f 26/103/24 14/102/22 76/107/136
f 76/107/136 14/102/22 67/106/133
s 22
f 38/122/72 44/129/76 79/126/137
f 79/126/137 44/129/76 82/130/138
f 44/129/76 56/133/81 82/130/138
f 82/130/138 56/133/81 85/134/139
f 56/133/81 50/123/74 85/134/139
f 85/134/139 50/123/74 88/127/140
f 50/123/74 38/122/72 88/127/140
f 88/127/140 38/122/72 79/126/137
s 29
f 65/50/117 66/85/141 68/44/118
f 68/44/118 66/85/141 69/86/142
s 6
f 66/111/143 67/106/133 69/117/144
f 69/117/144 67/106/133 70/110/134
s 31
f 68/44/127 69/47/145 71/41/125
f 71/41/125 69/47/145 72/48/146
s 6
f 69/117/147 70/110/134 72/118/148
f 72/118/148 70/110/134 73/114/135
s 30
f 71/89/121 72/91/149 74/49/122
f 74/49/122 72/91/149 75/92/150
s 6
f 72/118/151 73/114/135 75/112/152
f 75/112/152 73/114/135 76/107/136
f 67/106/133 66/111/153 76/107/136
f 76/107/136 66/111/153 75/112/154
s 32
f 66/53/155 65/50/130 75/54/156
f 75/54/156 65/50/130 74/49/129
s 30
f 77/52/124 78/93/157 80/90/123
f 80/90/123 78/93/157 81/94/158
s 22
f 78/131/159 79/126/137 81/137/160
f 81/137/160 79/126/137 82/130/138
s 31
f 80/42/126 81/45/161 83/43/128
f 83/43/128 81/45/161 84/46/162
s 22
f 81/137/163 82/130/138 84/138/164
f 84/138/164 82/130/138 85/134/139
s 29
f 83/43/120 84/87/165 86/51/119
f 86/51/119 84/87/165 87/88/166
s 22
f 84/138/167 85/134/139 87/132/168
f 87/132/168 85/134/139 88/127/140
f 79/126/137 78/131/169 88/127/140
f 88/127/140 78/131/169 87/132/170
s 32
f 78/55/171 77/52/131 87/56/172
f 87/56/172 77/52/131 86/51/132
